<svg xmlns="http://www.w3.org/2000/svg" xmlns:xlink="http://www.w3.org/1999/xlink" width="190" zoomAndPan="magnify" viewBox="0 0 142.5 30.000001" height="40" preserveAspectRatio="xMidYMid meet" version="1.0"><defs><g/></defs><g fill="#ffffff" fill-opacity="1"><g transform="translate(4.272413, 25.009521)"><g><path d="M 17.921875 -22.828125 L 27.015625 -22.828125 L 18.8125 -13.4375 L 27.1875 0 L 18.515625 0 L 13.765625 -8.359375 L 9.796875 -5.109375 L 9.796875 0 L 2.453125 0 L 2.453125 -22.828125 L 9.796875 -22.828125 L 9.796875 -13.078125 Z M 17.921875 -22.828125 "/></g></g></g><g fill="#ffffff" fill-opacity="1"><g transform="translate(31.915894, 25.009521)"><g><path d="M 14.078125 -17.921875 C 16.109375 -17.921875 17.628906 -17.351562 18.640625 -16.21875 C 19.660156 -15.09375 20.171875 -13.46875 20.171875 -11.34375 L 20.171875 0 L 13.578125 0 L 13.578125 -10.546875 C 13.578125 -11.304688 13.378906 -11.910156 12.984375 -12.359375 C 12.597656 -12.816406 12.050781 -13.046875 11.34375 -13.046875 C 10.53125 -13.046875 9.867188 -12.78125 9.359375 -12.25 C 8.847656 -11.71875 8.59375 -11.0625 8.59375 -10.28125 L 8.59375 0 L 1.984375 0 L 1.984375 -17.515625 L 7.40625 -17.515625 L 7.828125 -14.875 C 8.515625 -15.800781 9.414062 -16.539062 10.53125 -17.09375 C 11.65625 -17.644531 12.835938 -17.921875 14.078125 -17.921875 Z M 14.078125 -17.921875 "/></g></g></g><g fill="#ffffff" fill-opacity="1"><g transform="translate(54.050601, 25.009521)"><g><path d="M 2.21875 -19.578125 L 2.21875 -24.0625 L 8.828125 -24.0625 L 8.828125 -19.578125 Z M 2.21875 0 L 2.21875 -17.515625 L 8.828125 -17.515625 L 8.828125 0 Z M 2.21875 0 "/></g></g></g><g fill="#ffffff" fill-opacity="1"><g transform="translate(65.101367, 25.009521)"><g><path d="M 13.671875 -17.515625 L 13.671875 -13.046875 L 9.953125 -13.046875 L 9.953125 -6.375 C 9.953125 -5.570312 10.082031 -4.988281 10.34375 -4.625 C 10.613281 -4.257812 11.101562 -4.078125 11.8125 -4.078125 L 13.671875 -4.078125 L 13.671875 -0.203125 C 13.140625 -0.0234375 12.453125 0.113281 11.609375 0.21875 C 10.773438 0.332031 10.046875 0.390625 9.421875 0.390625 C 7.472656 0.390625 5.972656 0.0390625 4.921875 -0.65625 C 3.878906 -1.363281 3.359375 -2.570312 3.359375 -4.28125 L 3.359375 -13.046875 L 0.890625 -13.046875 L 0.890625 -17.515625 L 3.625 -17.515625 L 5.046875 -22.828125 L 9.953125 -22.828125 L 9.953125 -17.515625 Z M 13.671875 -17.515625 "/></g></g></g><g fill="#ffffff" fill-opacity="1"><g transform="translate(79.835707, 25.009521)"><g><path d="M 13.671875 -17.515625 L 13.671875 -13.046875 L 9.953125 -13.046875 L 9.953125 -6.375 C 9.953125 -5.570312 10.082031 -4.988281 10.34375 -4.625 C 10.613281 -4.257812 11.101562 -4.078125 11.8125 -4.078125 L 13.671875 -4.078125 L 13.671875 -0.203125 C 13.140625 -0.0234375 12.453125 0.113281 11.609375 0.21875 C 10.773438 0.332031 10.046875 0.390625 9.421875 0.390625 C 7.472656 0.390625 5.972656 0.0390625 4.921875 -0.65625 C 3.878906 -1.363281 3.359375 -2.570312 3.359375 -4.28125 L 3.359375 -13.046875 L 0.890625 -13.046875 L 0.890625 -17.515625 L 3.625 -17.515625 L 5.046875 -22.828125 L 9.953125 -22.828125 L 9.953125 -17.515625 Z M 13.671875 -17.515625 "/></g></g></g><g fill="#ffffff" fill-opacity="1"><g transform="translate(94.570047, 25.009521)"><g><path d="M 2.03125 0 L 2.03125 -6.609375 L 9.0625 -6.609375 L 9.0625 0 Z M 2.03125 0 "/></g></g></g><g fill="#ffffff" fill-opacity="1"><g transform="translate(105.620812, 25.009521)"><g><path d="M 10.65625 -17.921875 C 13.332031 -17.921875 15.507812 -17.472656 17.1875 -16.578125 C 18.875 -15.679688 19.71875 -14.226562 19.71875 -12.21875 L 19.71875 -5.375 C 19.71875 -5 19.804688 -4.6875 19.984375 -4.4375 C 20.160156 -4.195312 20.425781 -4.078125 20.78125 -4.078125 L 21.96875 -4.078125 L 21.96875 -0.265625 C 21.90625 -0.222656 21.734375 -0.148438 21.453125 -0.046875 C 21.179688 0.046875 20.789062 0.140625 20.28125 0.234375 C 19.769531 0.335938 19.179688 0.390625 18.515625 0.390625 C 17.234375 0.390625 16.175781 0.195312 15.34375 -0.1875 C 14.519531 -0.570312 13.953125 -1.109375 13.640625 -1.796875 C 12.796875 -1.128906 11.851562 -0.597656 10.8125 -0.203125 C 9.78125 0.191406 8.566406 0.390625 7.171875 0.390625 C 3.054688 0.390625 1 -1.242188 1 -4.515625 C 1 -6.210938 1.457031 -7.507812 2.375 -8.40625 C 3.289062 -9.300781 4.609375 -9.914062 6.328125 -10.25 C 8.054688 -10.582031 10.316406 -10.75 13.109375 -10.75 L 13.109375 -11.609375 C 13.109375 -12.296875 12.867188 -12.816406 12.390625 -13.171875 C 11.921875 -13.523438 11.304688 -13.703125 10.546875 -13.703125 C 9.867188 -13.703125 9.28125 -13.578125 8.78125 -13.328125 C 8.28125 -13.085938 8.03125 -12.707031 8.03125 -12.1875 L 8.03125 -12.046875 L 1.53125 -12.046875 C 1.507812 -12.160156 1.5 -12.316406 1.5 -12.515625 C 1.5 -14.171875 2.285156 -15.484375 3.859375 -16.453125 C 5.441406 -17.429688 7.707031 -17.921875 10.65625 -17.921875 Z M 13.109375 -7.640625 C 11.222656 -7.640625 9.832031 -7.429688 8.9375 -7.015625 C 8.039062 -6.609375 7.59375 -6.0625 7.59375 -5.375 C 7.59375 -4.269531 8.347656 -3.71875 9.859375 -3.71875 C 10.722656 -3.71875 11.476562 -3.945312 12.125 -4.40625 C 12.78125 -4.875 13.109375 -5.453125 13.109375 -6.140625 Z M 13.109375 -7.640625 "/></g></g></g><g fill="#ffffff" fill-opacity="1"><g transform="translate(127.75552, 25.009521)"><g><path d="M 2.21875 -19.578125 L 2.21875 -24.0625 L 8.828125 -24.0625 L 8.828125 -19.578125 Z M 2.21875 0 L 2.21875 -17.515625 L 8.828125 -17.515625 L 8.828125 0 Z M 2.21875 0 "/></g></g></g></svg>